<svg xmlns="http://www.w3.org/2000/svg" width="754" height="192" viewBox="0 0 754 192">
  <g fill="#FFF" fill-rule="evenodd">
    <path d="M314 180.5v2.8c.2 1 0 1.8.2 2.8v3c0 .6.3 1.3 0 2h-7.7c-1 0-1.3-.4-1.2-1.3v-2.2c-.3-1.6 0-3.3-.2-5v-5-10c-.3-1 0-2.3 0-3.4 0-.2 0-.7-.6-.6-3.3 5-6.7 10-10 15.2-1.5 2-3 4-4.2 6.3-.4.2-1 0-1.5 0l-7-10.4L274 163c-.6.2-.3.7-.3 1v10.8c-.4 1.6-.2 3.3-.2 5v7.6c-.4.8-.2 1.6-.3 2.4 0 .3.2.7 0 1H266c-1.8 0-1.8 0-1.8-1.7.3-1 0-1.7.2-2.6v-2.7c.3-1 0-2 .2-3v-2.5c.3-1 0-1.8.2-2.8V173c.3-1 0-2 .2-2.8v-2.8c.4-1 0-1.8.3-2.7V162c.3-1 0-2 .2-3v-3c.3-1 0-2 .2-2.8v-2.7c.4-1 0-2 .3-2.8V145c.3-1 0-2 .2-2.8 0-.8-.2-1.7 1.2-1.7.8 0 1 .3 1.3.8 3.4 5 6.8 10 10 15l10.2 15c.3 1 .5.7 1 0 4-6 7.6-12 11.5-18 2.8-4 5.6-8.2 8.3-12.4 0-.4.3-.5.7-.5.4.2.8 0 1.2 0 0 .2 0 .2.2.2V145c.3.8 0 1.8.3 2.7v2.7c.3 1 0 2 .3 2.8v2.5c0 1-.2 2 0 2.8v2.7c.3 1 0 2 .3 2.8v2.7c.2 1 0 2 0 2.8v2.8c.4 1 0 2 .4 2.8v2.8c.2 1 0 1.8.2 2.7M710.5 166v-23c0-.7 0-1.2 1-1.3 5-.4 9.8-1 14.7-.6 6.8.5 13.2 2 18.7 6 4.7 4 7.5 9 8.2 15.3.6 5 0 9.7-2 14.2-2.8 7-8 11-15.2 13.3-5 1.6-10.5 1.5-15.8 1.4-3 0-5.7-.3-8.6-.5-1 0-1-.6-1-1.4V166zm9 0v-15.4c0-.8.2-1 1-1.2 5.8-.4 11.6-.5 16.7 2.8 4 2.6 6 6.4 6.5 11 .4 3.4 0 6.6-1 9.7-2 5.3-6 8.3-11.7 9.5-3.5.6-7 .4-10.5.2-1 0-1-.6-1-1.3V166zM381.6 190.8c-.3-.3-.2-.6-.2-1v-49c1.3-.5 2-.3 3 .7l15 15.7c4 4.4 8.4 9 12.6 13.3l.8.8v-29.7c.3-.3.7 0 1 0 2.7 0 5.4-.2 8 0v48.7c0 .5.5 1-.3 1.4-.8.2-1.4.2-2-.5l-8.5-9-8-8.5c-3-3-6-6-8.8-9.3-1-1.2-2.3-2.2-3.3-3.4-.8.2-.5.8-.5 1.2v27.6c0 .4 0 1-.2 1.2l-8.7-.2zM699.4 190.8h-9.7c-.6 0-1-.2-1.2-.7l-9.3-15.2c-.6-1-1-1.5-2.3-1.4-1.6.2-3 0-4.5 0-.8 0-1 0-1 1v15.2c0 1-.4 1.4-1.4 1.3h-6.6c-.8 0-1 0-1-1v-47c0-.8.2-1 1-1 5.3-.6 10.8-1 16.3-.6 3.3.3 6.5 1 9.4 3 4.7 2.8 7 7 6.8 12.4 0 6.3-3 10.8-8.4 13.8-1 .5-.7.8-.3 1.5l11.5 17.6c.3.4.6.7.7 1.3l.2-.2zm-28-33.3c0-2.3.2-4.7 0-7 0-.5 0-1 .8-1 2.7-.2 5.5-.5 8.2.3 3 .8 5.2 2.4 5.7 5.5.8 3 .4 6-2.2 8.2-1.7 1.4-3.7 2-6 2-1.6.2-3.4 0-5 0-1 0-1.2-.2-1.2-1v-7h-.2zM448 190.8h-8.8c-.3-.3 0-.7 0-1-.2-15.8-.2-31.5-.2-47.2 0-1.2 0-1.2 1.3-1.2h7c.7 0 1 .2 1 1v18c0 .3-.2.7 0 1 .3.2.6.2 1 .2h20.5v-20.2c.5-.2 1 0 1.7 0 2.5 0 5-.2 7.4 0v48c0 1-.4 1.5-1.6 1.4H471c-1 0-1.3-.3-1.3-1.2V171c0-.8-.2-1-1.2-1h-20.2c-.2.4 0 1 0 1.3v18.3c0 .4 0 1-.2 1.2zM216.6 190.8h-9c-.2-.3 0-.7 0-1v-47.2c0-1.2 0-1.2 1.2-1.2h7c.8 0 1 .2 1 1v18c0 1.2 0 1.2 1.2 1.2h20.2v-20.1c3-.2 6-.3 9.2 0v48c0 1-.3 1.3-1.4 1.2h-6.8c-.8 0-1-.2-1-1V171c0-1-.2-1-1-1H217c-.5.4-.3.8-.3 1.2v18.4c0 .4 0 1-.2 1.2M334 56.3V99c0 1.5 0 1.5-1.5 1-2.5-1-5-1.7-7.2-3.3-2.3-1.6-3.5-3.6-3.5-6.6V23c0-3.6 1.5-6 4.3-7.5 2.4-1.3 4.8-2.3 7.3-3 .8-.2.8 0 .8.7v43zM410 12.2c3.3 1 6.4 2 9.2 4.2 2 1.4 3 3.3 3 5.8V90c0 3-1.2 5-3.5 6.4-2.5 1.8-5.3 3-8.3 3.8-.3 0-.5 0-.5-.4V13.4c0-.4-.3-.8 0-1.2M119.5 149.7h-21c-.4.8-.2 1.5-.2 2.2v9.4c.5.2 1 0 1.3 0h16.7c1 0 1.3.2 1.3 1.2v6c0 1-.4 1.2-1.3 1H99.6c-.4 0-.8 0-1.2.2-.3.5 0 1 0 1.5v9.7c0 .3-.2.7 0 1l.4.2h20.7c.3 1 0 2 0 3 0 1.7.3 3.6 0 5.4H89.2c-.3-.3 0-.7 0-1v-47.2c0-1.2 0-1.2 1-1.2h28.2c1 0 1.3.2 1.2 1v7.5zm230-9c1 2.7 2 5 3.3 7.8l14.3 31.7c1.6 3 3 6 4.4 9l.6 1.6h-9.2c-1 0-1-.8-1.2-1.3-1.2-3.3-2.8-6.4-4-9.7-.2-.3-.6-.2-1-.2H340c-.3 0-.6 0-1 .2-1.5 3.3-2.8 7-4.3 10.3-.3.8-.5 1-1 1h-9l22.8-50c.7-.4 1.4 0 2 0v-.2zm-1 17l6 14.5H342c2-4.8 4-9.6 6.3-14.6zM604.7 190.8c1-2 2-4 2.7-6 6.6-14.4 13-28.8 19.7-43.2.4-.6.8-1 1.5-1s1 .4 1.3 1l21 46.5c1.3 3 1.3 3-1.7 3h-5.4c-1 0-1.3-.3-1.7-1l-4-9.4c0-.7-.6-1-1.3-1H620c-.8 0-1.2.4-1.5 1l-4 9.4c-.2.6-.5.8-1.3.8h-8.5zm23.6-33l4 9.2 1.8 4.4c.5.7.4 1-.3 1-3.6-.2-7-.2-10.7-.2-.7 0-1 0-.7-.7 2-4.5 4-9 5.8-13.5 0 0 .3 0 .4-.2zM174.6 191.6c-4.2-.2-8-1.5-11.7-3.3l-1-.6c-2-1-2-1.2-1-3l2-6c.3-.6.6 0 1 0 2.6 2 5.5 3.3 8.7 4 2.4.5 4.8.8 7.2-.5 1.7-1 3-2.4 3-4.4.2-.5.2-1 0-1.5 0-2.4-2-3.8-3.7-5-2.6-1.6-5.6-2.5-8.3-4-3-1.5-5.6-3.6-7.2-6.7-.7-1.3-1-2.7-1.2-4.2V153c.3-3.3 1.8-6 4-8 2.5-2.6 5.7-3.7 9.2-4.3h1c4.7-.3 9 .5 13.2 2.6 1.7 1 1.7 1 1 2.5l-2 5.8c-.2.7-.5 1-1.2.4-2-1.4-4.2-2.3-6.6-3-2.6-.5-5.2-.4-7.5 1.2-1 .7-1.7 1.8-1.8 3.2-.4.6-.4 1.3-.3 2 .2 2 1.8 3 3.4 4 2.7 1.7 5.6 2.7 8.3 4 2.6 1.5 5 3 7 5.6 1 1.5 1.5 3 2 5v1c.2 3.4-.3 6.6-2.2 9.5-2.3 3.8-6 6-10.3 6.8l-2.2.3h-3M31 141.6c-.2 2.3-.2 4.7-.2 7 0 1-.2 1-1 1h-19c-1 0-1.4.3-1.4 1.3v11c0 .6 0 1 1 1H28c.4.6.2 1.3.2 2v6.2H10.5c-1 0-1.2.2-1 1 0 5.8-.2 11.5 0 17.2 0 1-.4 1.4-1.4 1.3H1.5c-1 0-1-.2-1-1v-48.3c.2-.2.5 0 .8 0H30c.2 0 .6-.3 1 0M524 166.2v-23c0-2 0-1.8 2-1.8h5.6c2 0 1.7-.2 1.7 1.6v38c0 1.4 0 1.4 1.5 1.4h18.7c1 0 1.2.2 1.2 1v6.5c0 .5-.3.7-1 .7H525c-1 0-1-.4-1-1V166m42.4 0v-23.4c0-1 .2-1.2 1.2-1.2h6.7c1 0 1.3.3 1.3 1.2v38.2c0 1.6 0 1.6 1.5 1.6H596c1 0 1.3.2 1.2 1.2-.2 2-.2 4 0 6 0 1-.3 1.2-1.3 1.2h-28.2c-1 0-1-.3-1-1V166M75.4 190.8H45.2c-.4-.3-.2-.7-.2-1v-47.2c0-1 .2-1.3 1-1.3h7c1.2 0 1.2 0 1.2 1.3v39.6l.5.2h20.7c.3 1.3 0 2.7 0 4 0 1.6.3 3 0 4.4M358 41.4c-2-.3-3.2-1.5-4.3-3-2-2.6-3-5.5-4-8.6 0-.5 0-.6.5-.6h43.3c1.4 0 1.4 0 1 1.3-1 3-2 5.7-4 8.2-1 1.3-2.4 2.3-4 2.7H358M372.2 0h21.4c1.4 0 1.4 0 1 1.3-1 3-2 6-4.3 8.5-1.3 1.4-2.7 2.4-4.7 2.4h-26c-2.7 0-4.5-1-6-3-2-2.6-3-5.6-3.8-8.6-.2-.4 0-.6.4-.6h22M395 58.8c-1 2.8-2 5.5-3.6 8-1.7 2.6-4 4-7.2 4-8.5-.2-17 0-25.5 0-2 0-3.4-1.2-4.6-2.6-2-2.8-3.2-6-4-9.4 0-.5.4-.3.7-.3H394c.4 0 .8-.2 1 .3M506 166v23.5c0 1 0 1.4-1.2 1.3h-7c-.6 0-.8-.2-.8-1v-47.3c0-1 .3-1 1-1h7c.8 0 1 .2 1 1V166M146 190.8h-9c-.3-.3 0-.7 0-1-.2-15.8 0-31.5-.2-47.2 0-1 .2-1.3 1.2-1.3h6.8c1.4 0 1.2 0 1.2 1.4v47c0 .3.2 1 0 1"/>
    <path d="M146 190.8v-48.2c0-1-.2-1.3-1.3-1.3H138c-1 0-1.2.2-1.2 1V190l.2 1c-.4-.3-.3-.7-.3-1v-47.3c0-1 .3-1.3 1.3-1.3h7c1 0 1.2.3 1.2 1V190c0 .2 0 .6-.3.8m92.2-29.3c-.3.3-.7 0-1 0-6.4 0-13 0-19.4.2-1 0-1.2-.3-1-1.3 0-6-.2-11.7 0-17.6 0-1.3-.5-1.5-1.6-1.4H209c-1.2 0-1.4.3-1.4 1.4V191c-.3-.3 0-.7 0-1 0-15.8 0-31.6-.2-47.3 0-1 .3-1.3 1.3-1.3h6.8c1 0 1.4.3 1.4 1.4-.3 5.8 0 11.7-.3 17.5 0 1.2.4 1.5 1.4 1.5h20M54.4 182.3c-.3-.4 0-.8 0-1.3 0-12.7-.2-25.5 0-38.3 0-1-.4-1.4-1.5-1.3H46c-.7 0-1 .2-1 1v47.2c0 .4 0 .8.2 1.2-.5-.3-.3-.7-.3-1v-47.3c0-1 0-1.3 1-1.3h7c1 0 1.2.3 1.2 1.3v39.8M410 12.3V99c0 .3-.6 1 .4 1.2-.3.2-.6.2-.6-.2V13.6c0-.5-.2-1 .2-1.4M119.5 149.7V142c0-.8-.4-.6-1-.6h-28c-1 0-1 0-1 1v48.3c-.5-.3-.3-.7-.3-1v-47.3c0-1 .2-1.3 1.2-1.3h28.3c1 0 1.3.4 1.3 1.4v6.2c0 .3 0 .7-.3 1m328.6 12c-.3-.5 0-1 0-1.4v-17.6c0-1-.3-1.2-1.3-1.2h-6.7c-1 0-1.2.2-1.2 1v47l.3 1.4c-.4-.3-.3-.7-.3-1v-47.3c0-1 .2-1.3 1.2-1.3h7c1 0 1.2.3 1.2 1.2v19m-66.7-20.6v50c-.6-.2-.4-.6-.4-1v-48c0-.3-.2-.7.4-1"/>
    <path d="M98.4 170c.3-.4.8-.2 1.2-.2h16.8c1 0 1.2-.3 1.2-1.2v-5.8c0-1-.3-1.2-1.2-1.2H99.6c-.4 0-1 .2-1.2 0 6 0 12 0 18-.2 1 0 1.3.3 1.3 1.3v6c0 1-.3 1.3-1.2 1.3h-18M395 58.8c-.3-.5-.7-.3-1-.3h-43.2c-.4 0-.8-.2-1 .3-.2-.2 0-.4 0-.4h44c.4 0 1-.5 1 .4m-4.4 132c.3-.4.2-1 .2-1.4v-28.8h.2v.2c-.2.4 0 1 0 1.3v27.7c0 .4 0 1-.4 1.2M31 141.6l-1.2-.2H.3c.3-.4.7-.2 1-.2h28.4c.4 0 1-.3 1.2.4M358 41.4h28.6c-.4.7-.8.4-1 .4H359c-.4 0-.8.3-1-.4m111.7 120c-.2.8-.6.5-1 .5h-19.5c-.3 0-.6 0-1-.6h21.5m-253 29.4v-19.6c0-.4-.3-1 .3-1.2v19.6c0 .4.3 1-.4 1.2m231.4 0l.2-1.3v-18.3c0-.4-.2-.8.3-1.2v19.6c0 .4.3 1-.4 1.2"/>
    <path d="M98.7 182.3c-.8-.8-.3-1.7-.4-2.5V171c0-.3-.3-.7.4-1v12.3m0-21c-.8-1.7-.4-3.5-.3-5.3 0-2-.6-4 .3-6.2v11.6m148.7-19.7c-2-.5-3.8 0-5.7-.2h-3.5c.3-.4.7-.2 1-.2h7.3c.3 0 .7-.2 1 .4m174.5 0c-3 0-6.2-.5-9.2 0 0-.5.4-.5.7-.5h7.8c.2 0 .5 0 .6.4m57 0c-3.2 0-6.2-.2-9.3 0 .2-.4.4-.4.7-.4h8c461.8-141.2.3 0 .5.4m-359.5 49.2c.4-2.8.4-5.6 0-8.4.5 0 .5.4.5.7v7c0 .5 0 .8-.5 1m-44-.2c.3-2.8.3-5.6 0-8.4.4 0 .4.4.4.7v7c0 .5 0 .8-.7 1m-47-19.7c0-2.7.3-5.5 0-8.2.3.3.3.6.3 1v7c-14.6-171 0 .3-.4.4m245.2 9.8c0-2.2 0-4.3.5-6.4v5.4c0 .3 0 .7-.7 1m.3-12.6V163h.3c-.5 1.5 0 3 0 4.2-.3.5 0 1-.5 1.4m31.5 3.8c.4 1.7.3 3.4.3 5-1-1.6-.2-3.3-.4-5m0 10c.6 1.7.6 3.4.5 5-1-1.6-.3-3.3-.4-5m-.7-19h.5v4c-.4-1 0-2-.2-3 0-.4.2-.8-.3-1M163 153v3.4c-.8-1.2-.8-2.3 0-3.4m110 37.8c.7-1 0-2.3.5-3.4-.2 1 .5 2.3-.4 3.4m41.5-4.8c-.5-1-.5-1.8-.4-2.7 1 1 .4 1.8.6 2.8M266 153.5c0 1 0 2-.4 2.8.2-1-.5-2 .4-2.8m47.3 5c-.5-1-.4-1.7-.4-2.7.7 1 0 2 .2 2.8m-47-10.5c0 .8 0 1.8-.4 2.7.2-1-.4-2 .4-2.8m-1.2 32.7c0 1 0 2-.5 3 0-1-.5-2 .4-3m48-33c-.6-1-.6-1.8-.5-2.8.8.7.2 1.7.4 2.6m1.2 33c-.5-1-.4-2-.4-2.8 1 1 .3 1.8.4 2.7m-49.2-5.3c0 1 .2 2-.3 3 0-1-.5-2 .4-3m.7-16.2c.2 1 .2 1.8-.3 2.7 0-1-.5-2 .3-2.8m-1 27.3c0 1 0 1.8-.5 2.8.2-1-.5-1.7.4-2.6m1.8-44c0 1 .2 2-.3 2.8.3-1-.3-2 .5-2.8m47 21.6c-.5-1-.4-1.8-.4-2.8 1 1 .5 2 .6 2.8m.4 11c-.5-1-.4-1.8-.4-2.7 1 1 .3 1.8.4 2.7m-48.7-5c0 1 0 1.8-.4 2.7 0-1-.6-1.8.2-2.7m48.6-.5c-.5-1-.4-1.8-.4-2.8 1 1 .2 2 .4 2.8m-48.3-5c0 1 0 1.8-.4 2.7.4-1-.2-1.8.6-2.7m47.4-11.3c-.4-1-.4-1.8-.3-2.8.8 1 .2 2 .4 2.8m1.2 37.6c.4-.6 0-1.3 0-2 .5.7.8 1.4 0 2M172 155.3c-.5-.6-.5-1.3 0-2v2M288.5 185c.6 0 1 0 1.6-.2-.3.8-1 .6-1.4.2M183 176.3c.8.5.8 1 0 1.5v-1.5m129.6-34c0-.6-.3-1-.4-1.5.8.4.3 1 .4 1.4M192.8 175c-.5-.3-.5-.7-.5-1 .8.2.4.6.5 1M177 140.6c-.4.5-.8.5-1.2.4.3-.8.7-.3 1-.4m135.2.4c-.5 0-1 0-1.3-.4.4 0 1-.4 1.2.4"/>
  </g>
</svg>