<svg xmlns="http://www.w3.org/2000/svg" width="296" height="304" viewBox="0 0 296 304">
  <path fill="#FFF" fill-rule="evenodd" d="M176.3 47.4v20.4c-1.3-1-1.8-1.2-2-1.6-5-12.3-12.7-17-26-16.7-25 .4-34 20.4-31.5 39.8 3.6 25.8 24 32 43 29.8 3 0 4.6-2 4.6-5 0-6 0-13-.2-20-.2-5-1.6-6-8.2-6 0 6-.2 13 0 19 .2 4-.7 6-4.7 5h-10c6.6 0 6.5-5 6.5-9V67c0-1-.3-2-.4-2.8-6.3-1-10.4 1.3-12.2 7-2.4 7 .2 12 8.6 16-10.2 1-18.5-7-17.2-17 .8-6 5.3-9.5 12.4-10h23c-2 1-4.4 2-5.2 3.5-1 1.7-.4 4.2-.5 6.3v15H182c-7.5 4.4-7.5 4.4-7.5 14 0 5.8.3 11.5-.2 17 0 2-1.8 4.6-3.3 5.2-17.8 6.4-35.2 5.6-51-5.4-12.2-8.5-17.4-27-13-43 4.6-16.4 16.3-24.8 32.5-27.7 12.5-2 24.8 1 36.8 3zM269 182l-7.6-20.6c-3 7.7-5.2 14-7.7 20.6H269zm8.5 25c-.8-3.2-1.2-5.8-2-8.2-4.7-12.3-4.7-12.2-18-12.4-4 0-6.6 1-7.6 5l-3 7.6c-2 5-2 5.7 4 8h-68l35-54.8c-9 0-17-.7-24 .3-3 .4-6 4.5-9 7 0-4 1-8.4 1-12.6h47l-35 55c9 0 17 0 25-1 3-1 6-5 9-7l-1 11c5 0 7-3 8-7l17-42 5.5-13c1.2 3 2.2 4 3 6l19 46c2 5 4 9 10.3 11h-18zm-81-185.5c3-3.3 6-4.8 9.7-2.6L184 44c-23.2-12.4-47.6-12.6-71 0L91.3 19.2c3-2.3 4.4-2 9.8 2.2 3-1.8 7-3.2 9 .3 1 2 0 5.4-1 8.4 2 3 5 4 9 3s6-4 6-9c-1 0-3 0-3-1-1-2-3-4-2-6 1-1 4-3 6-3 1.6 0 4.3 4 4 5-1 4-.5 6 3 8 4 2 8 2 11.3-1 2-1 3-4 4-6-3 0-6 1-8 0-1 0-2.2-4-1.6-5 1-2 3.7-3 6.6-5 .3-3 2-6.3 7-6.2 4.7 0 6.4 3 7 5.5 3 3 5.3 4 6.7 6.5.7 1-.6 4-2 5-2 .4-5 0-7 0 1 6.5 8.4 10.5 15 7 2-1 4.6-2 3-5-1.4-3.7 0-6 3.4-7 3-1 5.5 0 6 3.3 1 3.3-.7 5.4-4 6l-2 .3c0 4 2 7 5.4 9 3.8 1.3 7 .5 8.6-2.5 0-3-1-6.7 0-9 1-1.4 5-1 7.8-1.6l1 1v.6zm-77 124.5l47 43.7v-4c0-9.5-.6-19-.7-28.5-.2-7.4-.3-7.6-7.3-10.2h19.8c-5.5 1.4-6 5.3-6 10 0 15.6-.5 31.2-.8 47 0 1-.2 2.4-1 4.3-15.7-14-30.7-28.8-45.6-45V197c0 5 1 9.2 7 9.8h-20c1-1 4-2 5-3.8 1-1.8 0-4.5 0-6.8V146zm-79 31.4h23c-2 1.7-4 2.7-5 4.4-1 1.8-.6 4.2-.7 6.4 0 4-.3 8.3 0 12.4 0 3.3-1.2 4.8-4.3 5.7-12 3.2-24 3.3-35.7-1.5-13.5-5.5-19.7-18-17.3-34 2-13 13.4-23.8 27.7-24.6 9.5-.5 19 .6 29.4 1l-1 17c-6.2-12.5-19-17.5-31.3-13-6.8 2.3-11 7-13 14-4.8 17.6 4.5 34.8 20.8 38.4 1 0 1 .3 2 .3 12 1 13 0 13-11v-5c0-8 0-8-7-11zm52 58.8c.3 6 1.8 12.3 7 17 9 8.2 21.5 5 24.5-6.4 1.8-6.7 1.7-13.5-1.4-20-3.3-7-10-11-17.2-10-8.4 1.2-13 7.8-13 19.4zm17-22.5c15 0 24 8.6 24 22.6 0 14.7-10.3 24.7-25.4 24.6-14-1-24-10-24-24 1-15 11-24 26-24zM54 227.5c0 2 .2 4 0 6-.8 4.5 2 5.2 5.5 5 5.3 0 7-3.6 7.7-8 1-5.8-1.6-11-6.3-12.7-6-2-7-.7-7 4.7v5zm34 32c-8.5 2-15 0-19.7-7.2-1.6-2.5-3.6-4.8-5.2-7.3-2-3.4-4-4.7-8-3.4-2 10.5-1 15.8 6 18.3H44c.8-3 2.4-5 2.5-8 .3-11 .4-21 0-32 0-2-1.8-4-2.6-6 6 0 14-1 22 0 7 1 10 9 6 16-2 2-4 5-6 8 6 7 10 16 21 20zM77 147h21.7c-5.6 1.4-5.8 5.6-5.8 10 0 13-1 26 0 39 0 8.4 0 8.4 7 10.8H77c7-1.2 5.6-6.7 5.7-11.3V156c0-4-.2-8-5.8-9zm56.3 156.8c8-4.4 9-11.3 9-18.7v-62c0-3 .4-7-4.6-8h15c-.7 3-2.3 5-2.4 8-.2 17 0 34-.2 51 0 5 1 10 0 16-1 7-8 14-16 15zm110-54.8c.3 9.7-.8 11.4-9.2 11.6-5 .2-11-.2-17-2-11-3.2-16-13.5-15-25 1-10.6 9-18.6 20-19.6 7-.4 14 0 21 0v13.6c-4-9.4-10-12.3-20-10.4-7 1.5-11 7.4-12 16-1 14.7 8 24.5 21 24 6 0 8-1.3 12-8v-.2zm-54-7.6c-3.3-6.6-8.7-3.5-13.7-4.2 0 5.6-.3 10.7 0 15.8.2 1.2 2 3 3.5 3.5 6 1.7 10 0 13-4.6 1 7 0 8-7 8h-20c1-3 3-6 3-9 1-10 0-19 0-29 0-6 0-6-5-9h28v7c-3-7-9-4-14-5v16h13v8zm-168-2.7c5.3-1 8.4-4.2 9-9.4.5-4.4-1-8.3-5-10.6-1.7-1-4-1.4-6-1-.7 0-1.3 3-1.3 4.7 0 9.5-.2 19 0 28.5 0 6 .3 6 6 9H7.2c1-3 3-5 3-7 .2-11 .3-22 0-33 0-2-2.4-4-3.5-6h20c5 0 9 2 10.4 8 2 5 0 10-4 13-3 2-7 3-11 4v-2zM278.6 260h-16c1-2.6 2.6-5.3 2.7-8 .3-11.2 0-22.3 0-34-5.7.8-11.8-2-16.8 3.8l1-7.4h39.7v8.6c-4-6.8-10-4.4-16-5v7c0 9 0 18 .2 27 0 3.6 0 7.3 5.2 8zm-120.8 37.4h137.6v1H157.8v-1zm-30.5 1.2H5.6v-1h121.7v1z"/>
</svg>