<svg xmlns="http://www.w3.org/2000/svg" width="365" height="51" viewBox="0 0 365 51">
  <g fill="#FFF" fill-rule="evenodd">
    <path d="M13.2 39.8c0 3 0 5.2 1 6.2.7.8 1.6 1.3 6.3 1.3 6.5 0 7.5-.3 10.2-6.4.6-.3 1.5 0 1.8.4-.5 2.4-1.8 7-2.5 8.5l-14-.3H9.7c-3 0-6 0-8.4.2-.4-.3-.6-1.5 0-1.8l1.7-.4c2.8-.4 3.4-.5 3.4-6.6v-22c0-6-.6-6.2-3.3-6.6l-1.5-.2c-.5-.3-.5-1.6 0-1.6h16c.7 0 .7 1.3.3 1.6l-1.3.2c-2.8.4-3.3.6-3.3 6.7v20.5zM44 14.6c0 4.4-4 7.7-8.2 8.7-.4-.3-.5-1-.4-1.5 2.6-1 4.8-2.8 4.8-5.4 0-2-1.8-2.8-3.2-3-1 0-1.8-.8-1.8-2 0-1 .7-3 3.3-3 3 0 5.4 3 5.4 6.2M50.2 25.8c0-14.5 11-25.7 26-25.7 17 0 25.8 12.3 25.8 25.2-.2 14.8-11.5 25.6-25.7 25.6-16.3 0-26-11.7-26-25m44.2 1.7C94.5 15.3 89 2.3 75 2.3c-7.6 0-17.5 5.2-17.5 21.3 0 10.8 5.3 25 19.8 25 8.8 0 17.2-6.7 17.2-21M144 20.7c-.5.5-1.6.6-2 0-1-3.6-3.7-8.4-11.4-8.4-7.5 0-15 5.3-15 17.3 0 12.5 7.8 18.6 15.4 18.6 7.4 0 10.6-5 12.3-8.7.5-.6 1.4-.3 1.7.2-.4 4-2 7.8-2.8 9-.7 0-1.4.3-2 .4-1.3.7-5.4 1.7-9.2 1.7-5.8 0-10.8-1.2-15-4-4.8-3-8.4-8.4-8.4-16 0-7 3-12.3 7.4-15.7 4.4-3.4 10.3-5 16.2-5 3.4 0 7.4.5 10.2 1.2l1.6.4c.2 1.3.3 4.8 1 9zm40.6 0c-.4.5-1.5.6-2 0-1-3.6-3.5-8.4-11.3-8.4-7.4 0-15 5.3-15 17.3 0 12.5 8 18.6 15.4 18.6 7.5 0 10.7-5 12.3-8.7.5-.6 1.5-.3 1.8.2-.4 4-2 7.8-2.8 9-.7 0-1.4.3-2 .4-1.4.7-5.4 1.7-9.3 1.7-5.8 0-10.8-1.2-15-4-4.7-3-8.3-8.4-8.3-16 0-7 3-12.3 7.4-15.7 4.3-3.4 10.3-5 16.2-5 3.3 0 7.4.5 10 1.2l1.8.4c0 1.3.2 4.8.8 9zm16 20.5c0 6.2.4 6.4 3.2 6.7h1.2c.5.4.4 1.5 0 1.7l-8-.2c-2.5 0-5.2 0-7.8.2-.5-.2-.5-1.3 0-1.7h1.2c2.7-.4 3.3-.6 3.3-6.8v-22c0-6-.6-6.3-3.3-6.6l-1.3-.2c-.2-.4-.2-1.5.3-1.7l8 .2 7.7-.4c.4.2.5 1.3 0 1.7l-1.2.2c-2.8.3-3.3.5-3.3 6.7v22zM224 15.8c0-2.5 0-2.6-1.6-2.6h-3.2c-5.4 0-7 .7-9.2 5.4-.4.4-1.6.2-2-.4 1-3.2 2-6.8 2.4-9h1.2c.3 1.6 1.2 1.7 5.2 1.7h24c2.8 0 3.7-.4 4.4-1.8l.7-.2c.5 0 .8.2 1 .4-.6 2.4-1 7.4-1 9.3-.2.5-1.2.6-2 .2-.5-4.8-1.6-6-8-6h-3.3c-1.5 0-1.5 0-1.5 2.7V41c0 6.3.6 6.5 3.3 6.8h2.2c.4.5.3 1.6-.2 1.8l-8.6-.2c-2.7 0-5.4 0-9 .2-.7-.2-.7-1.4-.3-1.7l2.4-.3c2.8-.2 3.3-.4 3.3-6.6V16zm35.5 19.4c-1.5 0-1.5 0-2 1.6l-2.4 7c-1.2 3.5-1 3.7 1.2 4l1.7.3c.4.6.4 1.7 0 2-2 0-4 0-6.3-.3-2 0-4 0-6 .2-.4-.4-.5-1.3 0-1.8l1.7-.2c1.7-.2 2.3-.8 3.2-2.7l3-7 8-21c.6-2 1-3.3 1-4.3 2-.4 4-2.8 4-2.8.5 0 .8 0 1 .4 1 2.6 1.8 5.4 2.7 8l8.4 24.6c1.5 4 1.8 4.4 4.8 5h.8c.4.5.4 1.5 0 1.8l-7.6-.2c-2.5 0-5 0-7.2.2-.4-.3-.5-1.4 0-1.7h1c2.3-.3 2.4-.7 1.7-3.2l-2.8-8c-.7-1.5-1-1.5-2.5-1.5h-7.8l.3-.3zm7-2.6c1.7 0 2 0 1.5-1.5l-2.5-7c-1-3-1.4-4-1.7-4.5-.3.4-.8 2-1.8 4.6l-2.5 7c-.6 1.7-.5 1.7 1 1.7h6zm57 7V50c-.4.6-1.2.8-2 .8l-7-8L301.4 27c-4-4.2-5.7-6.5-6.7-7.3-.2 0-.2.6-.2 3.7V35c0 4.3 0 9.7 1 11.4.6 1 1.6 1.3 3 1.5h1.3c.6.4.5 1.5 0 1.7l-6.8-.2c-2.6 0-4 0-6 .2-.7-.3-.8-1.3-.3-1.7l1.3-.2c1-.2 2-.4 2.5-1.4.7-1.8.7-7 .7-11.5V21c0-4.6 0-5.6-2-7.3-.6-.5-2.2-1-3-1l-1-.3c-.3-.4-.3-1.5.3-1.7 2.3.2 5.5.2 7 .2l4-.4c1 2.5 7.4 10 9.5 12l5.8 6.5c2.5 2.8 8 9 8.6 9.4V25.7c0-4.4 0-9.8-1-11.6-.5-.7-1.5-1-3-1.3l-1.3-.2c-.3-.4-.2-1.5.3-1.7l6.8.2c2.6 0 4-.2 6.3-.3.4.3.5 1.3 0 1.7l-1.3.3c-1.2.2-2.2.4-2.6 1.3-.8 2-.8 7-.8 11.6v14zM337 19.3c0-6.2-.3-6.5-3-6.8h-1c-.5-.7-.4-1.7 0-2h26.8l.8 8c-.2.6-1.4.7-2 .4-.6-3.2-1.6-5-3.4-5.2-1.3-.5-3-.6-4.6-.6h-4c-2.6 0-2.6 0-2.6 3.6v9.8c0 1.5 0 1.6 1.3 1.6h2.7c5.2 0 6.2 0 6.6-2.6l.5-2c.6-.4 1.7-.4 2 0v12c-.3.5-1.4.5-1.8.2l-.4-2.4c-.6-2.6-1.6-2.6-6.8-2.6h-2.7c-1.3 0-1.3 0-1.3 1.6v7.4c0 3 0 5.2 1 6.2.6.8 1.6 1.3 6.5 1.3 7.5 0 8.8-1.6 10.8-6.4.6-.4 1.6 0 2 .4-.4 2.4-1.7 7-2.6 8.5l-14.5-.3h-6.7c-2.5 0-6 0-8.8.2-.4-.3-.5-1.4 0-1.8l2-.2c3-.2 3.4-.4 3.4-6.6v-22z"/>
  </g>
</svg>