<?xml version="1.0" encoding="UTF-8" standalone="no"?>
<svg width="95px" height="147px" viewBox="0 0 95 147" version="1.1" xmlns="http://www.w3.org/2000/svg" xmlns:xlink="http://www.w3.org/1999/xlink">
    <!-- Generator: Sketch 3.6.1 (26313) - http://www.bohemiancoding.com/sketch -->
    <title>Vertical</title>
    <desc>Created with Sketch.</desc>
    <defs>
        <path id="path-1" d="M67.5618207,0.2405 L0.000331034483,0.2405 L0.000331034483,67.6642125 L67.5618207,67.6642125 L67.5618207,0.2405 L67.5618207,0.2405 Z"></path>
        <path id="path-3" d="M0,147.7595 L95.3829517,147.7595 L95.3829517,0.660714286 L0,0.660714286 L0,147.7595 Z"></path>
    </defs>
    <g id="Page-1" stroke="none" stroke-width="1" fill="none" fill-rule="evenodd">
        <g id="Vertical">
            <g id="Page-1">
                <g id="Group-3" transform="translate(0.000000, 0.420214)">
                    <mask id="mask-2" fill="white">
                        <use xlink:href="#path-1"></use>
                    </mask>
                    <g id="Clip-2"></g>
                    <path d="M33.7810759,67.6642125 C42.9984,67.6642125 50.9326345,64.4075518 57.5851034,57.8882839 C64.2342621,51.3756232 67.5618207,43.3968375 67.5618207,33.9512661 C67.5618207,23.9797661 64.070731,15.8681768 57.0918621,9.61715893 C50.1090207,3.36878393 42.3403034,0.240301786 33.7810759,0.240301786 C24.6928552,0.240301786 16.7910621,3.50224821 10.0743724,10.0135875 C3.35768276,16.5328554 0.000331034483,24.4462304 0.000331034483,33.7530518 C0.000331034483,42.9290518 3.25969655,50.8774446 9.77776552,57.5896411 C16.2984828,64.3077839 24.2976,67.6642125 33.7810759,67.6642125" id="Fill-1" fill="#5FB9CD" mask="url(#mask-2)"></path>
                </g>
                <path d="M33.4002538,60.0455161 C40.3129159,60.0455161 46.2649159,57.6041768 51.2536055,52.7129089 C56.240309,47.8295696 58.736309,41.8448196 58.736309,34.7599804 C58.736309,27.2820161 56.1178262,21.1988196 50.883509,16.5097304 C45.6465434,11.8239446 39.8196745,9.47774821 33.4002538,9.47774821 C26.5849159,9.47774821 20.6580745,11.9243732 15.6203917,16.8077125 C10.582709,21.6969982 8.06419862,27.6315339 8.06419862,34.6119804 C8.06419862,41.4939804 10.5092193,47.4549446 15.3979366,52.4895875 C20.2879779,57.5275339 26.2876469,60.0455161 33.4002538,60.0455161" id="Fill-4" fill="#F66F87"></path>
                <path d="M33.4002538,51.6175107 C38.0089159,51.6175107 41.9766952,49.9895107 45.3022676,46.7295464 C48.6271779,43.4735464 50.2909572,39.4841536 50.2909572,34.7607071 C50.2909572,29.7749571 48.5457434,25.7201536 45.0553159,22.5936536 C41.5642262,19.4697964 37.6798676,17.9058857 33.4002538,17.9058857 C28.8571366,17.9058857 24.9052469,19.5365286 21.5472331,22.7918679 C18.1885572,26.0524929 16.5095503,30.0081893 16.5095503,34.6622607 C16.5095503,39.2496 18.1395641,43.2244571 21.3982676,46.580225 C24.6589572,49.9392964 28.6591779,51.6175107 33.4002538,51.6175107" id="Fill-6" fill="#FDDC71"></path>
                <path d="M32.8668248,131.049375 L32.8668248,135.486071 L33.9320938,135.486071 C34.7226041,135.486071 35.3522317,135.280589 35.8216386,134.870286 C36.2897214,134.459982 36.5247559,133.883179 36.5247559,133.141196 C36.5247559,132.439518 36.344011,131.915571 35.9838455,131.568036 C35.62368,131.222482 35.0834317,131.049375 34.3624386,131.049375 L32.8668248,131.049375 Z M27.9893628,127.056679 L35.3793766,127.056679 C37.2934179,127.056679 38.7751283,127.568732 39.8264938,128.5935 C40.8765352,129.616946 41.40288,131.068536 41.40288,132.948929 C41.40288,133.928107 41.2294179,134.910589 40.8824938,135.895054 C40.5362317,136.878196 39.8066317,137.735143 38.6930317,138.461929 C37.5794317,139.189375 36.1818041,139.552107 34.4994869,139.552107 L32.8668248,139.552107 L32.8668248,147.7595 L27.9893628,147.7595 L27.9893628,127.056679 Z" id="Fill-8" fill="#474747"></path>
                <path d="M48.0491255,131.079041 L48.0491255,135.515737 L49.1057876,135.515737 C49.8578979,135.515737 50.4338979,135.293737 50.8304772,134.848416 C51.2263945,134.403095 51.4256772,133.839505 51.4256772,133.156987 C51.4256772,132.463898 51.2515531,131.945237 50.9039669,131.597702 C50.5577048,131.252148 50.0320221,131.079041 49.3282428,131.079041 L48.0491255,131.079041 Z M43.2166841,127.056613 L50.6662841,127.056613 C52.3519117,127.056613 53.71776,127.492684 54.763829,128.362845 C55.8092359,129.233666 56.3329324,130.469863 56.3329324,132.072755 C56.3329324,133.388898 55.9575393,134.508809 55.2094014,135.43447 C54.4612634,136.35947 53.3377324,137.088898 51.8421186,137.622755 C53.7157738,137.920077 54.8757186,139.10672 55.321291,141.184666 L56.7334841,147.759434 L51.4395807,147.759434 L50.66496,142.031041 C50.5265876,141.060452 50.2968497,140.353487 49.9744221,139.908166 C49.6526566,139.462845 49.1594152,139.241505 48.49536,139.241505 L48.0491255,139.241505 L48.0491255,147.759434 L43.2166841,147.759434 L43.2166841,127.056613 Z" id="Fill-10" fill="#474747"></path>
                <mask id="mask-4" fill="white">
                    <use xlink:href="#path-3"></use>
                </mask>
                <g id="Clip-13"></g>
                <path d="M58.6526897,147.7595 L63.5301517,147.7595 L63.5301517,127.056679 L58.6526897,127.056679 L58.6526897,147.7595 Z" id="Fill-12" fill="#474747" mask="url(#mask-4)"></path>
                <path d="M66.4448441,127.056679 L71.3666648,127.056679 L73.7315752,133.61625 C74.4346924,135.566018 74.9756028,137.252821 75.3516579,138.677321 L75.6052303,138.677321 L75.4860579,135.174875 L75.4860579,127.056679 L80.1258372,127.056679 L80.1258372,147.7595 L75.2185821,147.7595 L72.8536717,141.199929 C72.1498924,139.250161 71.6096441,137.558732 71.2329269,136.124982 L70.965451,136.124982 L71.0846234,139.626768 L71.0846234,147.7595 L66.4448441,147.7595 L66.4448441,127.056679 Z" id="Fill-14" fill="#474747" mask="url(#mask-4)"></path>
                <path d="M82.2814676,127.056679 L95.3831503,127.056679 L95.3831503,131.256839 L91.1743779,131.256839 L91.1743779,147.7595 L86.3419366,147.7595 L86.3419366,131.256839 L82.2814676,131.256839 L82.2814676,127.056679 Z" id="Fill-15" fill="#474747" mask="url(#mask-4)"></path>
                <path d="M25.9577379,92.3830536 L40.6576552,92.3830536 L40.6576552,48.4171429 L25.9577379,48.4171429 L25.9577379,92.3830536 Z M33.4000552,26.9644107 C35.4034759,26.9644107 37.2215172,27.6885536 38.8555034,29.1335357 C40.4881655,30.5791786 41.3058207,32.4556071 41.3058207,34.7615 C41.3058207,36.9464821 40.5265655,38.7918571 38.9700414,40.297625 C37.4141793,41.8047143 35.5570759,42.5585893 33.4000552,42.5585893 C31.1814621,42.5585893 29.3097931,41.7815893 27.7837241,40.2275893 C26.2576552,38.6755714 25.4949517,36.838125 25.4949517,34.71525 C25.4949517,32.5626429 26.2808276,30.7324643 27.8525793,29.225375 C29.424331,27.7196071 31.2734897,26.9644107 33.4000552,26.9644107 L33.4000552,26.9644107 Z" id="Fill-16" fill="#474747" mask="url(#mask-4)"></path>
                <path d="M64.3267531,52.9841321 C65.6244083,51.109025 67.0981738,49.7089714 68.7520221,48.7859536 C70.4032221,47.8635964 72.2484083,47.4030786 74.2875807,47.4030786 C77.7760221,47.4030786 80.6878014,48.67165 83.0189462,51.2081321 C85.3514152,53.745275 86.5166566,56.9061321 86.5166566,60.6893821 L86.5166566,92.3831857 L71.8167393,92.3831857 L71.8167393,63.7339536 C71.8167393,61.2430607 70.891829,59.9962929 69.0426703,59.9962929 C67.7483255,59.9962929 66.7148359,60.6741857 65.9448497,62.0266679 C65.1742014,63.3798107 64.7895393,65.2720964 64.7895393,67.7015429 L64.7895393,92.3831857 L50.2730152,92.3831857 L50.2730152,48.417275 L62.8940359,48.417275 L64.3267531,52.9841321 Z" id="Fill-17" fill="#474747" mask="url(#mask-4)"></path>
                <path d="M23.902411,100.193225 C22.4869076,100.193225 21.4044248,101.007225 20.6536386,102.635886 C19.9021903,104.264546 19.5274593,106.490493 19.5274593,109.315707 C19.5274593,112.182546 19.8915972,114.434921 20.6211972,116.069529 C21.3501352,117.706118 22.3571421,118.522761 23.6422179,118.522761 C24.9127283,118.522761 25.9303283,117.68035 26.6963421,115.993546 C27.4616938,114.308064 27.8443697,112.060314 27.8443697,109.249636 C27.8443697,106.33985 27.4577214,104.102011 26.685749,102.539421 C25.9124524,100.975511 24.9855559,100.193225 23.902411,100.193225 M23.1443421,93.8391357 C26.7969766,93.8391357 29.6783007,95.2147429 31.7863283,97.9672786 C33.8950179,100.719814 34.9490317,104.481261 34.9490317,109.249636 C34.9490317,114.034529 33.8870731,117.849493 31.7651421,120.69585 C29.6418869,123.541546 26.8916524,124.964725 23.5124524,124.964725 C20.0034869,124.964725 17.2890041,123.487368 15.3683421,120.533314 C13.4483421,117.579261 12.48768,113.897761 12.48768,109.488154 C12.48768,106.433671 12.9570869,103.691707 13.8959007,101.262921 C14.8347145,98.8354571 16.1482593,96.9914036 17.8378593,95.7294393 C19.5274593,94.4687964 21.2958455,93.8391357 23.1443421,93.8391357" id="Fill-18" fill="#474747" mask="url(#mask-4)"></path>
                <path d="M37.7857986,94.3358607 L44.8037297,94.3358607 L44.8037297,114.308593 C44.8037297,115.894307 45.0235366,117.085575 45.4644745,117.8857 C45.9047503,118.685825 46.5654952,119.085557 47.446709,119.085557 C48.3696331,119.085557 49.060171,118.721504 49.5143503,117.994057 C49.9691917,117.26595 50.1969434,116.17445 50.1969434,114.718896 L50.1969434,94.3358607 L57.257909,94.3358607 L57.257909,115.108057 C57.257909,118.249093 56.394571,120.677879 54.6698814,122.391771 C52.9438676,124.108307 50.5147366,124.964593 47.3811641,124.964593 C44.3488883,124.964593 41.9912607,124.136718 40.3102676,122.478325 C38.6272883,120.822575 37.7857986,118.365379 37.7857986,115.108057 L37.7857986,94.3358607 Z" id="Fill-19" fill="#474747" mask="url(#mask-4)"></path>
                <path d="M60.1603531,94.3358607 L79.2425048,94.3358607 L79.2425048,100.452754 L73.1124083,100.452754 L73.1124083,124.488879 L66.0739531,124.488879 L66.0739531,100.452754 L60.1603531,100.452754 L60.1603531,94.3358607 Z" id="Fill-20" fill="#474747" mask="url(#mask-4)"></path>
                <path d="M33.4002538,43.1895714 C35.7042538,43.1895714 37.6884745,42.3755714 39.3515917,40.7455893 C41.0133848,39.11825 41.8456055,37.1228929 41.8456055,34.7615 C41.8456055,32.268625 40.9729986,30.2408929 39.2277848,28.6776429 C37.482571,27.1157143 35.5393986,26.3334286 33.4002538,26.3334286 C31.1280331,26.3334286 29.1530814,27.1494107 27.4734124,28.77675 C25.7950676,30.4067321 24.9549021,32.38425 24.9549021,34.7112857 C24.9549021,37.0059464 25.770571,38.9927143 27.3992607,40.6702679 C29.0292745,42.3504643 31.0293848,43.1895714 33.4002538,43.1895714" id="Fill-21" fill="#474747" mask="url(#mask-4)"></path>
            </g>
        </g>
    </g>
</svg>