<svg xmlns="http://www.w3.org/2000/svg" width="352" height="109" viewBox="0 0 352 109">
  <g fill="#FFF" fill-rule="evenodd">
    <path d="M51.5 36.6c-.4-8.4-6.7-13.4-14.2-13.4H37c-8.7 0-13.5 6.8-13.5 14.6C23.5 46.5 29.3 52 37 52c8.5 0 14-6.3 14.5-13.7v-1.7zM37 15.6c6 0 11.3 2.6 15.4 6.6 0-2 1.3-3.3 3-3.3h.5c2.6 0 3.2 2.4 3.2 3.3v30c-.2 2 2 3 3.3 1.7 4.8-4.8 10.6-25.3-3-37.2-12.7-11-29.7-9.3-38.7-3-9.7 6.6-16 21.2-10 35 6.6 15 25.3 19.5 36.3 15 5.7-2.2 8.3 5.4 2.5 7.8C41 75.4 16.5 75 5 55.2c-7.8-13.4-7.4-37 13-49 15.8-9.5 36.5-7 49 6 13 13.7 12.3 39.2-.5 49.2-5.7 4.5-14.3 0-14.2-6.5v-2.3c-4 4-9.4 6.3-15.2 6.3-11.3 0-21.4-10-21.4-21.5 0-11.6 10-22 21.6-22H37zm224.7 43.8c0 2-2 3.8-4.8 3.8-3 0-4.8-2-4.8-4v-3c0-2 1.8-4 4.7-4 3 0 4.6 2 4.6 4v3.2zm31-45c-13.3 0-24.5 11.7-24.4 24.4v20c0 2.5 2 4.4 4.3 4.4 2.7 0 4.7-2 4.7-4.4v-20c0-7.3 6.3-15.3 15.2-15.3 3 0 4.8-2 4.8-4.6 0-2-1.4-4.6-4.7-4.6zm54.3 0c-2.7 0-4.5 2.4-4.5 4.5v20c0 7.5-6.5 15-15.5 15-7.4 0-15.2-6.4-15.2-15V19c0-2-1.6-4.5-4.7-4.5-2 0-4.3 1.8-4.3 4.4v19.7c0 13 11.6 24.3 24.4 24.3 14 0 24.8-11.8 24.8-24V19c0-2.4-2-4.5-4.6-4.5h-.2zM214.2 7.3c0 2-2 3.5-4.8 3.5s-4.6-2-4.6-3.7V4.7c0-2 1.7-4 4.6-4 3 0 4.8 2 4.8 4v2.8zm-85 7.2c-5.8 0-10.2 3.3-13 5.5-3-3.2-7-5.2-10.8-5.5-4.2-.2-8.2 1.2-10.7 3.2-1-2-2-3.2-4-3.2-2.2 0-4.5 1.8-4.5 5v39c0 2.4 2 4.7 4.7 4.7 3 0 4.5-2.4 4.5-4.6v-29c0-3 5-6.3 9-6.2 2.6 0 5.7 2.6 5.7 6.6v28.7c0 2.5 2.6 4.4 5 4.4 2.6 0 4.7-2 4.7-4.2v-29c0-3.5 5.3-6.4 9-6.3 3 .2 5.4 3.3 5.4 6.4v29c0 2.3 2.4 4.2 5 4.2 2 0 4.7-1.3 4.7-4.4V30c0-10.7-10.3-15.6-15-15.5h.2zm80.3 0c-3 0-4.7 2.3-4.7 4.6v39.7c0 2.6 2 4.5 4.6 4.5 3 0 4.8-2 4.8-4.6V19.2c0-2.3-2.3-4.7-4.7-4.7zm-36.2 39.7c-8.5 0-15.4-7-15.4-15.4 0-8.5 6.7-15.3 15.2-15.3 8.4 0 15.3 6.8 15.3 15.3s-7 15.4-15.3 15.4zM193 14.5c-2.6 0-4.4 2-4.4 4.2v1.6c-4.2-3.6-9.6-5.8-15.5-5.8-12.6 0-24 10.8-24 24.4 0 12.2 10.8 24 24 24 5.6 0 11.5-2 15.6-5.6v1.2c0 2.2 1.8 4.5 4.7 4.5 3.2 0 4.7-2.5 4.7-4.6V19c0-2-2-4.5-5-4.5zm48.7 39.2c-6 0-11.3-4.6-11.3-11.3V5c0-2.7-2-4.5-4.6-4.5-3 0-4.8 2.2-4.8 4.4v37.3C221 54 230.6 63 241.6 63c3.2 0 4.8-2.6 4.8-5 0-2-1.7-4.4-4.7-4.4zm42.6 26.5c-5.5 0-10.3 5-10.3 10.3V99c0 1 1 2 2 2s2-1 2-2v-8.5c0-3 2.6-6.5 6.3-6.5 1.2 0 2-1 2-2 0-.7-.6-1.8-2-1.8zM296.7 97c-3.6 0-6.5-2.8-6.5-6.4v-.2c0-2.8 2-5.3 4.5-6 .6-.3 1.3-.4 2-.4 3.5 0 6.5 3 6.5 6.5 0 3-2 5.4-4.6 6.2-.6.2-1.2.3-2 .3zm10.3-6.5c0-5.3-4.6-10.3-10.3-10.3h-.2c-5.4 0-10.2 4.6-10.2 10.3 0 5.3 4.6 10.4 10.3 10.4h.2c5.5-.3 10.2-5 10.2-10.6zm20.4-10.3c-1.2 0-2 1-2 1.8v8.5c0 3.3-2.7 6.5-6.5 6.5-3.4 0-6.7-2.7-6.7-6.4V82c0-.8-.7-1.8-2-1.8-1 0-2 .8-2 2v8.3c0 5.5 5 10.4 10.5 10.4 5.8 0 10.4-5.3 10.4-10.5V82c0-1-.8-1.8-2-1.8h.2zm14 16.8c-3.4 0-6-2.4-6.5-5.6v-1.8c.2-3.2 3-5.6 6.2-5.6 3.6 0 6.5 3 6.5 6.5 0 3.6-3 6.5-6.5 6.5zm0-16.8c-2.5 0-4.8 1-6.6 2.4V82c0-1-.8-1.8-2-1.8-1 0-2 1-2 2v25c0 1 1 1.8 2 1.8 1.3 0 2-1 2-2v-8.5c1.8 1.5 4.3 2.4 6.6 2.4 5.7 0 10.3-5.3 10.3-10.6 0-5.7-5-10.3-10.3-10.3v.2zM262 97c-3.6 0-6.5-3-6.5-6.5 0-3.6 3-6.5 6.5-6.5 3.6 0 6.5 3 6.5 6.5 0 3.6-3 6.5-6.5 6.5zm8.4-16.8c-1 0-2 1-2 1.8v.6c-1.7-1.5-4-2.4-6.5-2.4-5.6 0-10.5 4.6-10.5 10.3 0 5.3 4.6 10.4 10.3 10.4 2.2 0 4.7-1 6.5-2.6v1c-.3 2.3-2 4.5-5 5.4-2 .6-7.7-.8-8.2-1-1.2 0-2 1-2 2s.8 1.6 2 2c1.8.5 4.8 1 7.4 1 2 0 9.6-1.6 10-10V82c0-.7-1-1.8-2.2-1.8h.2z"/>
  </g>
</svg>