<svg width="90" height="90" viewBox="0 0 90 90" xmlns="http://www.w3.org/2000/svg">
  <g fill="#FFF" fill-rule="evenodd">
    <path d="M56.4 47v-.2c.4-.7.4-.8 1.3-2 0-.2.2-.3.3-.5l.7-.5c.4 0 .6 0 1-.2v-1H54v1c.6 0 1 0 1.2.2.6.2.5.5.3 1l-.8 1c-1.4-1-3-2-4.2-3v-.2c2-1 3.3-2 3.3-3.5 0-1.7-1.6-3-4-3-2.8 0-5 1.7-5 4 0 1.5.6 2.6 1.5 3.5-2.8 2-3.4 2.7-3.4 4.2 0 3 2.3 4.8 5.4 4.8 2 0 3.6-.8 5.4-2.6l3.4 2.4 2.3-3.2-3.3-2 .2-.2zm-7-10.3c1.2 0 2 1 2 2.3 0 1.5-.6 2.3-1.2 3-.6.7-.2 0-.2 0-1.3-1-2-2-2-3.3 0-1.3.7-2 1.5-2zm2.2 12.6c-1.2.7-2.3.4-2.5.3-1.4-.5-2.4-2-2.4-3.3 0-.8.2-1.5.6-2 .2 0 .2-.2.2-.2v.3l5.3 4.4-1 .7z"/>
    <path d="M46.5 56.5c-2.5-2.4-7.2-9.2-8.2-11L38 45h.3c3.4-1.3 6-3.7 6-7.7 0-4.5-3.3-7.5-9.5-7.6H17.7v1.6c.8 0 1.7.3 2.3.4 1 .2 1.4 1 1.5 2.3v21.8c0 1.6-.5 2.3-1.6 2.5l-2.5.4v1.6H33v-1.6c-1.3-.2-1.7-.2-2.7-.5-1-.3-1.3-1-1.4-2.4-.3-2-.3-5.3-.3-8.4V47H30c1 0 1.3.4 1.6 1 1.7 2.7 4 7 6.2 9.5.2.4 1.2 1.5 2.5 2 1 .6 3.8.8 6 .8H51v-1.6c-2.4-.2-2.8-.5-4.5-2.2zM34.7 44c-1 .6-3.4.7-5.6.7v-13h2c3.8 0 6.2 3 6.2 7.2 0 3-1 4.3-2.3 5h-.3zm35 14.2c-1.5-.4-1.5-1.5-1.6-2.5V34.4c.3-1.5.3-2.2 1.5-2.6l2.6-.5v-1.6H56.6v1.6c1.2 0 1.8.2 2.8.5 1 .3 1.2 1 1.3 2v21.8c0 2-.4 2.4-1.8 2.7l-2.3.4v1.6h16v-1.6c-1-.2-2.3-.3-2.8-.5z"/>
    <path d="M87 3v84H3V3h84zm3-3H0v90h90V0z"/>
  </g>
</svg>