<svg width="144" height="33" viewBox="0 0 144 33" xmlns="http://www.w3.org/2000/svg">
  <g fill="none" fill-rule="evenodd">
    <path d="M14.5 14.7c-.4-3-1.7-6.2-4-8.6C8 3.8 5 2.5 1.7 2c.4 3.2 1.7 6.2 4 8.6 2.5 2.4 5.6 3.7 8.7 4z" fill="#FFF"/>
    <path d="M14.5 14.7c-.4-3-1.7-6.2-4-8.6C8 3.8 5 2.5 1.7 2c.4 3.2 1.7 6.2 4 8.6 2.5 2.4 5.6 3.7 8.7 4" fill="#FFF"/>
    <path d="M14.5 14.7c-.4-3-1.7-6.2-4-8.6C8 3.8 5 2.5 1.7 2c.4 3.2 1.7 6.2 4 8.6 2.5 2.4 5.6 3.7 8.7 4z" stroke="#FFF" stroke-width="2"/>
    <path d="M14.5 17.8c-3.2.3-6.2 1.7-8.6 4-2.6 2.5-4 5.6-4.3 8.7 3.2-.3 6.3-1.7 8.7-4 2.4-2.5 3.8-5.6 4-8.7" fill="#FFF"/>
    <path d="M14.5 17.8c-3.2.3-6.2 1.7-8.6 4-2.6 2.5-4 5.6-4.3 8.7 3.2-.3 6.3-1.7 8.7-4 2.4-2.5 3.8-5.6 4-8.7" fill="#FFF"/>
    <path d="M14.5 17.8c-3.2.3-6.2 1.7-8.6 4-2.6 2.5-4 5.6-4.3 8.7 3.2-.3 6.3-1.7 8.7-4 2.4-2.5 3.8-5.6 4-8.7z" stroke="#FFF" stroke-width="2"/>
    <path d="M17.6 14.7c3-.3 6.2-1.7 8.6-4C28.6 8 30 5 30.2 1.8c-3 .3-6 1.6-8.5 4-2.4 2.5-3.8 5.5-4 8.7" fill="#FFF"/>
    <path d="M17.6 14.7c3-.3 6.2-1.7 8.6-4C28.6 8 30 5 30.2 1.8c-3 .3-6 1.6-8.5 4-2.4 2.5-3.8 5.5-4 8.7" fill="#FFF"/>
    <path d="M17.6 14.7c3-.3 6.2-1.7 8.6-4C28.6 8 30 5 30.2 1.8c-3 .3-6 1.6-8.5 4-2.4 2.5-3.8 5.5-4 8.7z" stroke="#FFF" stroke-width="2"/>
    <path d="M17.6 17.8c.3 3 1.7 6 4 8.5 2.5 2.4 5.5 3.8 8.6 4-.3-3-1.7-6-4-8.4-2.5-2.5-5.5-4-8.6-4.2" fill="#FFF"/>
    <path d="M17.6 17.8c.3 3 1.7 6 4 8.5 2.5 2.4 5.5 3.8 8.6 4-.3-3-1.7-6-4-8.4-2.5-2.5-5.5-4-8.6-4.2" fill="#FFF"/>
    <path d="M17.6 17.8c.3 3 1.7 6 4 8.5 2.5 2.4 5.5 3.8 8.6 4-.3-3-1.7-6-4-8.4-2.5-2.5-5.5-4-8.6-4.2z" stroke="#FFF" stroke-width="2"/>
    <path d="M39 28.2v.3c0 .7.7 1.2 1.5 1.2 1 0 1.6-1 1.6-2 0-1.2-.4-2.2-1.5-2.2-.7 0-1.3.5-1.5 1.2v1.5zm-1-6h1v3.5c.3-.6 1-1 1.8-1 1.4 0 2.4 1.2 2.4 2.8 0 2-1.3 3-2.5 3-.8 0-1.5-.3-2-1v1h-1c.2-.5.2-1 .2-1.5v-6.8zM44.7 24.8L46 28c0 .5.2 1 .3 1.3 0-.4.2-.8.4-1.2l1-3.2h1l-1.4 4c-.7 2-1.2 3-2 3.5-.4.4-1 .6-1 .6l-.4-1 .8-.4 1-1V30 30l-2.2-5.2h1zM52.2 22.6h4.2v1h-3.2V26h3v1h-3v3.4h-1v-7.8zM57.5 26.6v-1.8h.8v1c.4-.6 1-1 1.7-1h.2v1H60c-.8 0-1.3.4-1.5 1.2v3.4h-1v-3.8zM64.7 27c0-.6-.3-1.6-1.4-1.6-1 0-1.5 1-1.6 1.7h3zm-3 .8c0 1.4 1 2 2 2 .6 0 1-.2 1.4-.4l.3.8c-.3 0-1 .3-1.8.3-1.8 0-2.8-1-2.8-2.8 0-1.7 1-3 2.6-3 2 0 2.3 1.6 2.3 2.6v.5h-4zM66.2 29.8l2.6-3.3.7-.8h-3v-1h4.2v.8l-2.5 3.2-.7 1h3.3v.7h-4.6v-.6zM71.2 29.8l2.5-3.3.7-.8h-3v-1h4.2v.8L73 28.7c0 .3-.3.6-.6 1h3.3v.7h-4.5v-.6zM79.6 27.6c-1 0-2.3 0-2.3 1.2 0 .7.4 1 1 1 .7 0 1-.5 1.3-1v-1.3zm1 1.5v1.4H80v-.7c-.4.4-1 .8-1.8.8-1 0-1.7-.8-1.7-1.6 0-1.4 1.2-2.2 3.3-2v-.3c0-.4 0-1.2-1.2-1.2-.6 0-1 0-1.5.4l-.3-.8c.4-.3 1-.5 1.8-.5 1.7 0 2 1.2 2 2.3v2zM88.5 27.2l-.8-2.3c0-.6-.2-1-.4-1.5 0 .5-.2 1-.4 1.4L86 27h2.3zM86 28l-.8 2.4h-1l2.6-7.8H88l2.6 7.8h-1l-1-2.4H86zM91.7 26.6v-1.8h.8v1c.3-.6 1-1 1.6-1h.4v1H94c-.6 0-1 .4-1.3 1.2v3.4h-1v-3.8zM95.5 26.6v-1.8h.8v1c.3-.6 1-1 1.6-1h.2v1H98c-.8 0-1.3.4-1.5 1.2v3.4h-1v-3.8zM102.6 27c0-.6-.2-1.6-1.4-1.6-1 0-1.4 1-1.5 1.7h3zm-3 .8c0 1.4 1 2 2 2 .7 0 1.2-.2 1.5-.4l.3.8c-.3 0-1 .3-1.8.3-1.8 0-2.8-1-2.8-2.8 0-1.7 1-3 2.6-3 2 0 2.3 1.6 2.3 2.6v.5h-4zM108.7 27v-.3c-.2-.7-.8-1.2-1.5-1.2-1 0-1.7 1-1.7 2 0 1.3.6 2.2 1.6 2.2.8 0 1.4-.5 1.6-1.2V27zm1-4.8v8.2h-1v-1c-.3.6-1 1-1.8 1-1.5 0-2.5-1-2.5-2.7 0-2 1-3 2.5-3 .8 0 1.4.4 1.6 1V22h1zM114.3 27.6c-1 0-2.4 0-2.4 1.2 0 .7.4 1 1 1s1-.5 1.2-1v-1.3zm1 1.5v1.4h-1v-.7c-.3.4-1 .8-1.7.8-1 0-1.7-.8-1.7-1.6 0-1.4 1-2.2 3.3-2v-.3c0-.4-.2-1.2-1.3-1.2-.5 0-1 0-1.5.4l-.2-.8c.5-.3 1-.5 1.8-.5 1.8 0 2.3 1.2 2.3 2.3v2zM117 26.3c0-.6 0-1-.2-1.5h1v1c.3-.6.8-1 1.8-1 .7 0 1.3.4 1.5 1l.8-.7c.3 0 .7-.3 1.2-.3.7 0 1.8.5 1.8 2.4v3.4h-1v-3c0-1.2-.4-2-1.2-2-.5 0-1 .6-1.2 1v4h-1V27c0-.8-.4-1.5-1.2-1.5-.6 0-1 .5-1.2 1v3.9h-1v-4zM130 27c0-.6-.3-1.6-1.4-1.6-1 0-1.5 1-1.6 1.7h3zm-3 .8c0 1.4 1 2 2 2 .7 0 1-.2 1.5-.4l.2.8c-.4 0-1 .3-2 .3-1.6 0-2.6-1-2.6-2.8 0-1.7 1-3 2.7-3 1.8 0 2.3 1.6 2.3 2.6v.5h-4zM132.2 26.3v-1.5h1v1c.2-.6 1-1 1.8-1s2 .4 2 2.3v3.4h-1v-3.2c0-1-.4-1.7-1.3-1.7-.7 0-1.2.5-1.4 1v3.9h-1v-4zM139.8 23.5v1.3h1.4v.8h-1.4v3c0 .7.2 1 .7 1h.6l.2.8h-1c-.4 0-.8 0-1-.3-.3-.2-.4-.7-.4-1.4v-3h-1v-.8h1v-1l1-.3zM142.3 30.4h1v-5.6h-1v5.6zm1.2-7c0 .2-.3.5-.7.5-.3 0-.6-.4-.6-.7 0-.4.3-.7.7-.7.2 0 .5.3.5.7zM42.2 2v11c0 3.4 1.3 5 3.5 5 2.3 0 3.6-1.5 3.6-5V2h4.4v10.8c0 6-3 9-8 9s-8-3-8-9v-11h4.5zM57.5 21.3V2h5l4.2 7c1 2 2.2 4.5 3 6.7h.2c-.4-2.6-.5-5.2-.5-8V1.8h4v19.3H69L64.8 14c-1-2.2-2.4-4.7-3.4-7v14.3h-4zM77.4 21.3h4.4V2h-4.4v19.3zM85.6 2H90v15.7h7.7v3.6h-12V2zM100.3 21.3h4.4V2h-4.4v19.3zM113 2v11c0 3.4 1.2 5 3.4 5 2.3 0 3.6-1.5 3.6-5V2h4.4v10.8c0 6-3 9-8 9s-8-3-8-9v-11h4.5zM138.4 21.3l-1.8-3.5c-.7-1.3-1-2.3-1.7-3.4l-1.7 3.4-1.5 3.5h-5l5.6-9.8L127 2h5l1.7 3.5 1.5 3.2 1.3-3.2 1.7-3.6h5l-5.5 9.4 5.8 10h-5z" fill="#FFF"/>
  </g>
</svg>